<svg xmlns="http://www.w3.org/2000/svg" viewBox="0 0 209.98 41.53"><defs><style>.cls-1,.cls-2{fill:#1f3769;}.cls-1,.cls-3{fill-rule:evenodd;}.cls-3{fill:#f63;}</style></defs><g id="Layer_1" data-name="Layer 1"><polygon class="cls-1" points="73.89 27.31 58.03 27.31 62.68 20.48 66.97 20.48 66.97 8.67 54.23 27.25 45.5 27.25 63.99 0.35 73.89 0.27 73.89 27.31"/><path class="cls-1" d="M3.93,6.9V21.62H23v3.27H3.93v6.83h24a2.71,2.71,0,0,0,2-2.22V14.78H10.85V11.51H29.93V4.68H6a2.72,2.72,0,0,0-2,2.22Z" transform="translate(-3.93 -4.41)"/><polygon class="cls-1" points="29.16 7.1 38.7 7.1 38.7 27.31 45.62 27.31 45.62 7.1 55.16 7.1 55.16 0.27 29.16 0.27 29.16 7.1"/><polygon class="cls-1" points="76.97 27.31 102.97 27.31 102.97 20.48 83.89 20.48 83.89 0.27 76.97 0.27 76.97 27.31"/><polygon class="cls-1" points="106.14 27.31 132.13 27.31 132.13 20.48 113.05 20.48 113.05 0.27 106.14 0.27 106.14 27.31"/><rect class="cls-2" x="135.06" y="0.27" width="6.92" height="27.04"/><path class="cls-1" d="M168,11.51V24.89H155.74V11.51ZM148.82,7.18V29.24a2.89,2.89,0,0,0,2.08,2.48h21.9a2.71,2.71,0,0,0,2-2.22V6.9a2.84,2.84,0,0,0-2-2.22H150.9a2.88,2.88,0,0,0-2.08,2.5Z" transform="translate(-3.93 -4.41)"/><polygon class="cls-1" points="174.06 27.31 180.97 27.31 180.97 10.8 192.3 27.25 200.05 27.31 200.05 0.27 193.14 0.27 193.14 15.78 182.45 0.27 174.06 0.27 174.06 27.31"/><path class="cls-3" d="M206.91,31.72h6.92V10.51h-.31a3.6,3.6,0,0,1-6.4,0h-.21Z" transform="translate(-3.93 -4.41)"/><path class="cls-3" d="M210.41,11.28a3.48,3.48,0,0,0,3.5-3.44,3.5,3.5,0,0,0-7,0A3.48,3.48,0,0,0,210.41,11.28Z" transform="translate(-3.93 -4.41)"/><path class="cls-3" d="M66.24,43.39V37.15h.85l3.27,4.9v-4.9h.79v6.24H70.3L67,38.49v4.9Zm6.32,0V37.15h4.5v.73H73.39V39.8h3.44v.73H73.39v2.13h3.82v.73Zm7.38,0V37.88H77.88v-.73h4.94v.73h-2v5.51Zm5.73-2,.78-.07a1.71,1.71,0,0,0,.25.77,1.52,1.52,0,0,0,.63.49,2.42,2.42,0,0,0,1,.18,2.16,2.16,0,0,0,.83-.14,1.12,1.12,0,0,0,.54-.39.87.87,0,0,0,.18-.53.85.85,0,0,0-.17-.51,1.25,1.25,0,0,0-.57-.37q-.24-.09-1.11-.3a6,6,0,0,1-1.2-.39,1.65,1.65,0,0,1-.66-.58,1.42,1.42,0,0,1-.22-.78,1.68,1.68,0,0,1,.26-.89,1.66,1.66,0,0,1,.79-.62,3,3,0,0,1,1.14-.21,3.09,3.09,0,0,1,1.22.22,1.75,1.75,0,0,1,.82.66,1.93,1.93,0,0,1,.31,1l-.8.06a1.25,1.25,0,0,0-.43-.89,1.69,1.69,0,0,0-1.09-.3,1.76,1.76,0,0,0-1.09.27.83.83,0,0,0-.34.66.73.73,0,0,0,.24.56,3.42,3.42,0,0,0,1.25.44,9.53,9.53,0,0,1,1.38.4,1.88,1.88,0,0,1,.8.64,1.55,1.55,0,0,1,.26.88,1.65,1.65,0,0,1-.29.94,1.88,1.88,0,0,1-.81.68,2.93,2.93,0,0,1-1.2.25,3.65,3.65,0,0,1-1.42-.25,2.05,2.05,0,0,1-.9-.74,2.17,2.17,0,0,1-.34-1.12Zm5.83-1a3.39,3.39,0,0,1,.84-2.43,2.83,2.83,0,0,1,2.15-.87,2.93,2.93,0,0,1,1.56.41,2.74,2.74,0,0,1,1.06,1.15,4,4,0,0,1,0,3.37A2.64,2.64,0,0,1,96,43.11a3.06,3.06,0,0,1-1.51.39,3,3,0,0,1-1.58-.43,2.74,2.74,0,0,1-1-1.16,3.5,3.5,0,0,1-.36-1.56Zm.86,0a2.5,2.5,0,0,0,.6,1.77,2,2,0,0,0,1.52.65A2,2,0,0,0,96,42.14a2.67,2.67,0,0,0,.6-1.86A3.22,3.22,0,0,0,96.36,39a2,2,0,0,0-.75-.88,2.18,2.18,0,0,0-2.62.29,2.69,2.69,0,0,0-.63,2Zm6.14,3V37.15h.83v5.51h3.06v.73Zm9-6.24h.82v3.6a4.35,4.35,0,0,1-.21,1.5,1.84,1.84,0,0,1-.76.9,2.74,2.74,0,0,1-1.46.35,2.89,2.89,0,0,1-1.43-.31,1.67,1.67,0,0,1-.79-.87,4.14,4.14,0,0,1-.24-1.57v-3.6h.83v3.6a3.49,3.49,0,0,0,.15,1.2,1.16,1.16,0,0,0,.51.6,1.81,1.81,0,0,0,.9.21,1.68,1.68,0,0,0,1.29-.42,2.35,2.35,0,0,0,.39-1.59v-3.6Zm3.79,6.24V37.88H109.2v-.73h5v.73h-2.06v5.51Zm3.88,0V37.15H116v6.24Zm2-3a3.38,3.38,0,0,1,.83-2.43,2.85,2.85,0,0,1,2.15-.87,3,3,0,0,1,1.57.41,2.66,2.66,0,0,1,1,1.15,3.76,3.76,0,0,1,.37,1.67,3.64,3.64,0,0,1-.39,1.7,2.57,2.57,0,0,1-1.08,1.13,3.1,3.1,0,0,1-1.52.39,3,3,0,0,1-1.58-.43,2.74,2.74,0,0,1-1-1.16,3.63,3.63,0,0,1-.35-1.56Zm.85,0a2.46,2.46,0,0,0,.61,1.77,2.11,2.11,0,0,0,3.05,0,2.67,2.67,0,0,0,.6-1.86A3.22,3.22,0,0,0,122,39a2,2,0,0,0-.76-.88,2.18,2.18,0,0,0-2.62.29,2.69,2.69,0,0,0-.63,2Zm6.17,3V37.15H125l3.27,4.9v-4.9h.8v6.24h-.85L125,38.49v4.9Zm6-2,.78-.07a1.6,1.6,0,0,0,.26.77,1.43,1.43,0,0,0,.62.49,2.42,2.42,0,0,0,1,.18,2.16,2.16,0,0,0,.83-.14,1.12,1.12,0,0,0,.54-.39.87.87,0,0,0,.18-.53.85.85,0,0,0-.17-.51,1.25,1.25,0,0,0-.57-.37q-.24-.09-1.11-.3a6,6,0,0,1-1.2-.39,1.65,1.65,0,0,1-.66-.58,1.42,1.42,0,0,1-.22-.78,1.6,1.6,0,0,1,.27-.89,1.63,1.63,0,0,1,.78-.62,3,3,0,0,1,1.14-.21,3.17,3.17,0,0,1,1.23.22,1.77,1.77,0,0,1,.81.66,1.93,1.93,0,0,1,.31,1l-.79.06a1.29,1.29,0,0,0-.44-.89,1.68,1.68,0,0,0-1.08-.3,1.8,1.8,0,0,0-1.1.27.83.83,0,0,0-.34.66.73.73,0,0,0,.24.56,3.42,3.42,0,0,0,1.25.44,9.53,9.53,0,0,1,1.38.4,1.88,1.88,0,0,1,.8.64,1.47,1.47,0,0,1,.26.88,1.72,1.72,0,0,1-.28.94,1.85,1.85,0,0,1-.82.68,2.93,2.93,0,0,1-1.2.25,3.65,3.65,0,0,1-1.42-.25,2.05,2.05,0,0,1-.9-.74A2.17,2.17,0,0,1,130.22,41.39Z" transform="translate(-3.93 -4.41)"/><path class="cls-1" d="M144.14,41.93l.79.1a2,2,0,0,1-.69,1.08,2.12,2.12,0,0,1-1.29.38,2.08,2.08,0,0,1-1.57-.61,2.38,2.38,0,0,1-.58-1.71,2.5,2.5,0,0,1,.58-1.77,2,2,0,0,1,1.53-.63,1.92,1.92,0,0,1,1.47.62,2.46,2.46,0,0,1,.58,1.73c0,.05,0,.12,0,.21h-3.37a1.73,1.73,0,0,0,.42,1.13,1.25,1.25,0,0,0,.95.4,1.11,1.11,0,0,0,.71-.22,1.54,1.54,0,0,0,.48-.71Zm-2.51-1.23h2.52a1.59,1.59,0,0,0-.29-.86,1.2,1.2,0,0,0-1-.44,1.25,1.25,0,0,0-.89.35,1.42,1.42,0,0,0-.39,1Zm7,2.13a2.72,2.72,0,0,1-.77.5,2.06,2.06,0,0,1-.79.16,1.43,1.43,0,0,1-1-.37,1.26,1.26,0,0,1-.38-.94,1.24,1.24,0,0,1,.17-.67,1.38,1.38,0,0,1,.46-.47,2.15,2.15,0,0,1,.69-.25,9.15,9.15,0,0,1,1-.08,3.67,3.67,0,0,0,1-.15,2,2,0,0,0,.09-.53.5.5,0,0,0-.2-.42,1.25,1.25,0,0,0-.78-.21,1.4,1.4,0,0,0-.8.21,1.2,1.2,0,0,0-.45.62l-.78-.07a2,2,0,0,1,.76-1,2.19,2.19,0,0,1,1.3-.36,2,2,0,0,1,1.32.4,1,1,0,0,1,.38.78,3.87,3.87,0,0,1-.11.83l-.24,1.13a4.05,4.05,0,0,0-.12.87,3.06,3.06,0,0,0,.09.61h-.78a3.28,3.28,0,0,1-.09-.56ZM149,41.1l-.35.1-.62.07a4.92,4.92,0,0,0-.95.15.86.86,0,0,0-.42.29.79.79,0,0,0-.14.44.71.71,0,0,0,.23.54.93.93,0,0,0,.63.2,1.4,1.4,0,0,0,.74-.2,1.44,1.44,0,0,0,.56-.56,3.21,3.21,0,0,0,.32-1Zm1.59.74.77,0a1.52,1.52,0,0,0,.1.56.78.78,0,0,0,.38.38,1.28,1.28,0,0,0,.63.15,1.2,1.2,0,0,0,.77-.2.64.64,0,0,0,.25-.48.59.59,0,0,0-.15-.38,2.61,2.61,0,0,0-.76-.44,4.89,4.89,0,0,1-.78-.37,1.21,1.21,0,0,1-.43-.41,1,1,0,0,1-.15-.54,1.2,1.2,0,0,1,.43-.92,1.72,1.72,0,0,1,1.19-.38,1.86,1.86,0,0,1,1.29.4,1.4,1.4,0,0,1,.46,1l-.75,0a.88.88,0,0,0-.29-.65,1.12,1.12,0,0,0-.76-.24.94.94,0,0,0-.62.19.5.5,0,0,0-.22.4.47.47,0,0,0,.19.37,3.05,3.05,0,0,0,.65.34,4.42,4.42,0,0,1,1.11.6,1.17,1.17,0,0,1,.37.86,1.22,1.22,0,0,1-.21.66,1.48,1.48,0,0,1-.63.51,2.33,2.33,0,0,1-1,.2,2.23,2.23,0,0,1-1.33-.39,1.37,1.37,0,0,1-.52-1.26Zm7.61,0,.75.07a2.32,2.32,0,0,1-.75,1.06,2.06,2.06,0,0,1-1.39.5,1.93,1.93,0,0,1-.92-.23,1.56,1.56,0,0,1-.64-.68,2.16,2.16,0,0,1-.22-1,3.31,3.31,0,0,1,.34-1.44,2.46,2.46,0,0,1,.89-1,2.19,2.19,0,0,1,1.19-.34,1.72,1.72,0,0,1,1.29.5,1.91,1.91,0,0,1,.48,1.37,4.08,4.08,0,0,1-.06.68h-3.34a2,2,0,0,0,0,.24,1.48,1.48,0,0,0,.29,1,.92.92,0,0,0,.72.33,1.42,1.42,0,0,0,.78-.26,1.65,1.65,0,0,0,.6-.74Zm-2.25-1.14h2.55v-.17a1.26,1.26,0,0,0-.29-.88,1,1,0,0,0-.75-.31,1.4,1.4,0,0,0-.9.34,2.05,2.05,0,0,0-.61,1Zm5.9,4.41,0-.73a1.53,1.53,0,0,0,.47.07.65.65,0,0,0,.38-.1,2,2,0,0,0,.41-.53l.24-.44-.75-4.53h.76l.34,2.27c.07.45.12.9.17,1.35l2-3.62h.8L163.8,44a3.26,3.26,0,0,1-.74,1,1.19,1.19,0,0,1-.74.24,1.54,1.54,0,0,1-.52-.09Zm4.78-3.46a1.94,1.94,0,0,0,.23.95,1.51,1.51,0,0,0,.66.64,2.06,2.06,0,0,0,1,.23,2.28,2.28,0,0,0,1.22-.36,2.33,2.33,0,0,0,.9-1,3.3,3.3,0,0,0,.31-1.44,1.9,1.9,0,0,0-.5-1.38,1.75,1.75,0,0,0-1.31-.51,2.16,2.16,0,0,0-1.69.72,3.12,3.12,0,0,0-.78,2.18Zm.77-.07a3.55,3.55,0,0,1,.11-.79,2.19,2.19,0,0,1,.36-.77,1.69,1.69,0,0,1,.54-.5,1.26,1.26,0,0,1,.66-.18,1,1,0,0,1,.78.34,1.34,1.34,0,0,1,.31.95,2.63,2.63,0,0,1-.13.81,2.56,2.56,0,0,1-.24.56,2.09,2.09,0,0,1-.36.47,1.27,1.27,0,0,1-.45.3,1.19,1.19,0,0,1-.49.1,1,1,0,0,1-.78-.33,1.32,1.32,0,0,1-.31-1Zm7,1a2.29,2.29,0,0,1-1.67.92,1.17,1.17,0,0,1-.84-.3.94.94,0,0,1-.32-.73,5.4,5.4,0,0,1,.15-1l.6-2.61h.77l-.66,2.93a3,3,0,0,0-.08.57.44.44,0,0,0,.16.36.68.68,0,0,0,.46.13,1.39,1.39,0,0,0,.65-.16,1.58,1.58,0,0,0,.54-.42,2.43,2.43,0,0,0,.37-.63,6.92,6.92,0,0,0,.22-.82l.43-2h.76l-1,4.52h-.71l.17-.82Zm1.77.82.94-4.52h.68l-.19.92a3.14,3.14,0,0,1,.69-.77,1.1,1.1,0,0,1,.68-.25,1.34,1.34,0,0,1,.56.17l-.31.71a.71.71,0,0,0-.44-.15,1.16,1.16,0,0,0-.83.46,3.34,3.34,0,0,0-.67,1.62l-.38,1.81Zm6.17,0-.47-4.52h.74l.2,2,.08,1.14q0,.14,0,.51c.09-.28.17-.5.23-.66s.15-.37.28-.66l1.08-2.36h.84l.14,2.26c0,.34,0,.8.05,1.37.14-.37.37-.9.69-1.57l1-2.06H188l-2.21,4.52h-.81l-.16-2.65c0-.17,0-.49,0-1l-.42,1-1.2,2.63Zm8.77-1.53a1.79,1.79,0,0,1-.6.74,1.42,1.42,0,0,1-.78.26.91.91,0,0,1-.72-.33,1.43,1.43,0,0,1-.3-1,2.12,2.12,0,0,1,0-.24h3.34a4.08,4.08,0,0,0,.06-.68,1.91,1.91,0,0,0-.48-1.37,1.74,1.74,0,0,0-1.3-.5,2.18,2.18,0,0,0-1.18.34,2.46,2.46,0,0,0-.89,1,3.17,3.17,0,0,0-.34,1.44,2.16,2.16,0,0,0,.22,1,1.56,1.56,0,0,0,.64.68,1.93,1.93,0,0,0,.92.23,2.08,2.08,0,0,0,1.39-.5,2.32,2.32,0,0,0,.75-1.06l-.75-.07Zm-2.25-1.14a2,2,0,0,1,.61-1,1.4,1.4,0,0,1,.9-.34,1,1,0,0,1,.75.31,1.26,1.26,0,0,1,.29.88,1.16,1.16,0,0,1,0,.17Zm3.77,2.67,1.31-6.24h.76l-.47,2.23a2.61,2.61,0,0,1,.65-.47,1.39,1.39,0,0,1,.6-.14,1.33,1.33,0,0,1,1,.47,2.08,2.08,0,0,1,.41,1.38,3.46,3.46,0,0,1-.17,1.09,3.29,3.29,0,0,1-.41.84,2.93,2.93,0,0,1-.5.54,2.43,2.43,0,0,1-.54.3,1.71,1.71,0,0,1-.53.1,1.3,1.3,0,0,1-.77-.24,1.44,1.44,0,0,1-.51-.71l-.18.85Zm1.14-1.85v.15a1.26,1.26,0,0,0,.27.87.86.86,0,0,0,.67.3,1.07,1.07,0,0,0,.72-.28,2.05,2.05,0,0,0,.54-.89,3.28,3.28,0,0,0,.21-1.1,1.3,1.3,0,0,0-.27-.88.83.83,0,0,0-.66-.32,1.08,1.08,0,0,0-.74.32,2.48,2.48,0,0,0-.56,1,2.59,2.59,0,0,0-.17.84Zm6.13,1.85.94-4.52h.69l-.2.92A3.6,3.6,0,0,1,202,39a1.1,1.1,0,0,1,.68-.25,1.42,1.42,0,0,1,.57.17l-.32.71a.7.7,0,0,0-.43-.15,1.2,1.2,0,0,0-.84.46,3.44,3.44,0,0,0-.67,1.62l-.38,1.81Zm4-5.37.18-.87h.77l-.19.87Zm-1.13,5.37h.77l.95-4.52h-.77l-1,4.52Zm5-.65a1.88,1.88,0,0,1-1.38.75,1.36,1.36,0,0,1-1.07-.48,1.94,1.94,0,0,1-.43-1.37,3.45,3.45,0,0,1,.34-1.51,2.64,2.64,0,0,1,.85-1,1.82,1.82,0,0,1,1-.34,1.37,1.37,0,0,1,1.28.81l.5-2.43h.77l-1.3,6.24h-.71l.14-.65Zm-2.11-1.25a2.47,2.47,0,0,0,.09.75,1,1,0,0,0,.32.45.84.84,0,0,0,.54.18,1.19,1.19,0,0,0,1-.55,2.75,2.75,0,0,0,.58-1.77,1.17,1.17,0,0,0-.29-.84.91.91,0,0,0-.7-.3,1.07,1.07,0,0,0-.51.12,1.44,1.44,0,0,0-.45.42,2.39,2.39,0,0,0-.38.75,2.58,2.58,0,0,0-.15.79Zm7.24.37.75.07a2.32,2.32,0,0,1-.75,1.06,2.08,2.08,0,0,1-1.39.5,1.93,1.93,0,0,1-.92-.23,1.56,1.56,0,0,1-.64-.68,2.16,2.16,0,0,1-.22-1,3.31,3.31,0,0,1,.34-1.44,2.46,2.46,0,0,1,.89-1,2.19,2.19,0,0,1,1.19-.34,1.72,1.72,0,0,1,1.29.5,1.91,1.91,0,0,1,.48,1.37,4.08,4.08,0,0,1-.06.68h-3.34a2,2,0,0,0,0,.24,1.42,1.42,0,0,0,.29,1,.92.92,0,0,0,.72.33,1.42,1.42,0,0,0,.78-.26,1.71,1.71,0,0,0,.6-.74Zm-2.25-1.14h2.55v-.17a1.26,1.26,0,0,0-.29-.88,1,1,0,0,0-.75-.31,1.4,1.4,0,0,0-.9.34A2,2,0,0,0,210.64,40.72Z" transform="translate(-3.93 -4.41)"/><rect class="cls-2" x="177.89" y="41.1" width="31.73" height="0.43"/></g></svg>